<?xml version="1.0" encoding="UTF-8" standalone="no"?><!DOCTYPE svg PUBLIC "-//W3C//DTD SVG 1.1//EN" "http://www.w3.org/Graphics/SVG/1.1/DTD/svg11.dtd"><svg width="100%" height="100%" viewBox="0 0 1000 1000" version="1.1" xmlns="http://www.w3.org/2000/svg" xmlns:xlink="http://www.w3.org/1999/xlink" xml:space="preserve" xmlns:serif="http://www.serif.com/" style="fill-rule:evenodd;clip-rule:evenodd;stroke-linejoin:round;stroke-miterlimit:2;"><g><g><path d="M45.476,607.651l0,-162.176l36.629,0l0,162.176l-36.629,0Zm0,-215.303l36.629,0l0,36.909l-36.629,0l0,-36.909Z" style="fill:#d9d9d9;"/><path d="M237.291,445.475c10.625,0 19.713,3.775 27.262,11.324c7.55,7.55 11.324,16.637 11.324,27.262l0,123.589l-36.629,0l0,-123.589c0,-1.305 -0.652,-1.957 -1.957,-1.957l-87.519,0c-1.305,0 -1.957,0.652 -1.957,1.957l0,123.589l-36.629,0l0,-162.176l126.106,0Z" style="fill:#d9d9d9;"/><path d="M425.471,392.349l36.629,0l0,215.303l-126.385,0c-10.625,0 -19.713,-3.775 -27.262,-11.324c-7.55,-7.55 -11.324,-16.637 -11.324,-27.262l0,-85.003c0,-10.625 3.775,-19.713 11.324,-27.262c7.55,-7.55 16.637,-11.324 27.262,-11.324l89.756,0l0,-53.127Zm-89.756,178.673l87.799,0c1.305,0 1.957,-0.652 1.957,-1.957l0,-85.003c0,-1.305 -0.652,-1.957 -1.957,-1.957l-87.799,0c-1.118,0 -1.678,0.652 -1.678,1.957l0,85.003c0,1.305 0.559,1.957 1.678,1.957Z" style="fill:#d9d9d9;"/><path d="M611.134,445.475c10.625,0 19.713,3.775 27.262,11.324c7.55,7.55 11.324,16.637 11.324,27.262l0,60.956l-128.063,0l0,24.047c0,1.305 0.652,1.957 1.957,1.957l126.106,0l0,36.629l-126.106,0c-10.625,0 -19.713,-3.775 -27.262,-11.324c-7.55,-7.55 -11.324,-16.637 -11.324,-27.262l0,-85.003c0,-10.625 3.775,-19.713 11.324,-27.262c7.55,-7.55 16.637,-11.324 27.262,-11.324l87.519,0Zm-89.476,62.633l91.434,0l0,-24.047c0,-1.305 -0.652,-1.957 -1.957,-1.957l-87.519,0c-1.305,0 -1.957,0.652 -1.957,1.957l0,24.047Z" style="fill:#d9d9d9;"/><path d="M799.314,445.475l39.985,0l0,9.227l-60.117,70.463l60.117,73.259l0,9.227l-39.985,0l-43.899,-53.686l-43.62,53.686l-39.985,0l0,-9.227l59.837,-73.259l-59.837,-70.463l0,-9.227l39.985,0l43.62,51.449l43.899,-51.449Z" style="fill:#d9d9d9;"/><path d="M854.518,525.757l-52.962,-0.591l67.892,-79.533l23.552,-0.157l-14.897,68.914l16.585,0l-2.568,11.367l-16.658,0l-5.284,23.587l-20.942,-0l5.284,-23.587Zm5.486,-12.091l13.855,-50.829c0,0 -45.991,50.676 -45.988,50.683c0.003,0.007 32.133,0.146 32.133,0.146Z" style="fill:#9effbd;"/><path d="M913.479,549.344l-25.715,0l54.885,-86.449l-47.504,0l4.94,-17.42l78.796,0l-6.629,10.16l-58.773,93.709Z" style="fill:#9effbd;"/><path d="M794.851,506.8l-15.669,18.365l60.117,73.259l0,9.227l-39.985,0l-43.899,-53.686l-43.62,53.686l-39.985,0l0,-9.227l59.837,-73.259l-59.837,-70.463l0,-9.227l39.985,0l43.62,51.449l43.899,-51.449l39.985,0l7.775,0.157l-52.223,61.168Z" style="fill:#d9d9d9;"/></g></g></svg>